# xmcd CD database file
#
# Track frame offsets:
#	150
#	21767
#	43877
#	62853
#	80564
#	97920
#	113033
#	131560
#	148814
#	165190
#	191157
#	209025
#	226302
#	255929
#
# Disc length: 3630 seconds
#
# Revision: 0
# Processed by: cddbd v1.5.2PL0 Copyright (c) Steve Scherf et al.
# Submitted via: CDex 1.51
#
DISCID=c10e2c0e
DTITLE=Tom Vieth - Playground Blues Jam
DYEAR=2015
DGENRE=Blues
TTITLE0=Crazy Man
TTITLE1=You Don`t Love Poor Me No More
TTITLE2=I Walked All Night Long
TTITLE3=Your Homme In My Heart
TTITLE4=Country Boy
TTITLE5=You Can`t Sit Down
TTITLE6=Bloody Tears
TTITLE7=Everything`s Gonna Be Alright
TTITLE8=What Can I Do Make You Mine
TTITLE9=Dancing To My Music
TTITLE10=Babe What You Want Me To Do
TTITLE11=Take A Little Walk With Me
TTITLE12=Worry, Worry
TTITLE13=Going To New York
EXTD=YEAR: 2015
EXTT0=
EXTT1=
EXTT2=
EXTT3=
EXTT4=
EXTT5=
EXTT6=
EXTT7=
EXTT8=
EXTT9=
EXTT10=
EXTT11=
EXTT12=
EXTT13=
PLAYORDER=
